<?xml version="1.0" encoding="utf-8"?>
<!-- Generator: Adobe Illustrator 27.5.0, SVG Export Plug-In . SVG Version: 6.00 Build 0)  -->
<svg version="1.1" id="Layer_1" xmlns="http://www.w3.org/2000/svg" xmlns:xlink="http://www.w3.org/1999/xlink" x="0px" y="0px"
	 viewBox="0 0 466 379" style="enable-background:new 0 0 466 379;" xml:space="preserve">
<polygon points="63.2,132.5 63.2,112.7 45.1,112.7 45.1,102.9 27.1,102.9 27.1,112.7 9,112.7 9,132.5 0,132.5 0,174.6 18.1,174.6 
	18.1,132.5 18,132.5 18.1,132.4 27.1,132.4 27.1,122.6 45.1,122.6 45.1,132.4 54.2,132.4 54.2,132.5 54.2,132.5 54.2,174.6 
	72.2,174.6 72.2,132.5 "/>
<path d="M343.1,102.9c7.5,0,13.8,1.6,18.7,4.9c5,3.3,8.7,7.6,11.3,12.9c2.6,5.3,3.8,11.2,3.8,17.8v36.2h-19.8v-32.9
	c0-3.6-0.5-6.9-1.6-9.9c-1.1-2.9-2.7-5.3-5-7.1c-2.3-1.8-5.2-2.7-8.8-2.7c-3.6,0-6.5,0.9-8.8,2.6c-2.2,1.7-3.9,4.1-4.9,7
	c-1.1,2.9-1.6,6.2-1.6,9.7v33.1h-19.8v-33c0-3.6-0.5-6.9-1.5-9.9c-1-2.9-2.7-5.3-5-7c-2.3-1.7-5.2-2.6-8.8-2.6
	c-3.7,0-6.7,0.9-8.9,2.7c-2.2,1.8-3.9,4.1-4.9,7.1c-1,2.9-1.5,6.2-1.5,9.7v33h-19.8v-36.2c0-6.4,1.3-12.3,3.8-17.7
	c2.5-5.4,6.2-9.7,11.2-12.9c5-3.3,11.2-4.9,18.6-4.9c5.9,0,11.1,1.1,15.4,3.3c4.3,2.2,7.7,5.2,10,9.1c2.4,3.9,3.6,8.4,3.7,13.5h-4.5
	c0.1-5.1,1.4-9.6,3.9-13.5c2.5-3.9,5.9-6.9,10.2-9.1C332.8,104,337.7,102.9,343.1,102.9L343.1,102.9z"/>
<path d="M121.6,101.1c-20.7,0-37.5,16.8-37.5,37.6c0,20.8,16.8,37.6,37.5,37.6s37.5-16.8,37.5-37.6
	C159.2,117.9,142.4,101.1,121.6,101.1z M121.6,157.5c-10.4,0-18.8-8.4-18.8-18.8c0-10.4,8.4-18.8,18.8-18.8
	c10.4,0,18.8,8.4,18.8,18.8C140.4,149.1,132,157.5,121.6,157.5z"/>
<path d="M426,101.1c-20.7,0-37.5,16.8-37.5,37.6c0,20.8,16.8,37.6,37.5,37.6s37.5-16.8,37.5-37.6C463.5,117.9,446.7,101.1,426,101.1
	z M426,157.5c-10.4,0-18.8-8.4-18.8-18.8c0-10.4,8.4-18.8,18.8-18.8c10.4,0,18.8,8.4,18.8,18.8C444.7,149.1,436.3,157.5,426,157.5z"
	/>
<g>
	<path d="M150.7,29V9.5h-19.4v-9.8h-19.4v9.8H92.4V29h-9.7v19.5h9.7V68h19.4v9.8h19.4V68h19.4V48.5h9.7V29H150.7z M131.2,48.5v9.8
		h-19.4v-9.8h-9.7V29h9.7v-9.8h19.4V29h9.7v19.5H131.2z"/>
</g>
<g>
	<path d="M236.6,129v-19.5h-19.4v-9.8h-19.4v9.8h-19.4V129h-9.7v19.5h9.7V168h19.4v9.8h19.4V168h19.4v-19.5h9.7V129H236.6z
		 M217.1,148.5v9.8h-19.4v-9.8H188V129h9.7v-9.8h19.4v9.8h9.7v19.5H217.1z"/>
</g>
<g>
	<path d="M455.3,29V9.5h-19.4v-9.8h-19.4v9.8H397V29h-9.7v19.5h9.7V68h19.4v9.8h19.4V68h19.4V48.5h9.7V29H455.3z M435.9,48.5v9.8
		h-19.4v-9.8h-9.7V29h9.7v-9.8h19.4V29h9.7v19.5H435.9z"/>
</g>
<path d="M35.9,22.5c-3.7,0-6.8,0.9-9.2,2.7c-2.4,1.8-4.2,4.2-5.3,7.1c-1.1,2.9-1.7,6.2-1.7,9.9v32.2H0V39.8C0,33.1,1.3,27,4,21.4
	c2.6-5.5,6.6-10,11.9-13.3c5.3-3.3,12-5,20.1-5s14.8,1.7,20.1,5c5.3,3.3,9.4,7.7,12,13.2c2.7,5.5,4,11.7,4,18.5v34.5H52.4V42.2
	c0-3.5-0.6-6.8-1.8-9.8c-1.2-3-3-5.4-5.4-7.2C42.8,23.4,39.7,22.5,35.9,22.5z"/>
<path d="M343.1,2.9c7.5,0,13.8,1.6,18.7,4.9c5,3.3,8.7,7.6,11.3,12.9c2.6,5.3,3.8,11.2,3.8,17.8v36.2h-19.8V41.8
	c0-3.6-0.5-6.9-1.6-9.9c-1.1-2.9-2.7-5.3-5-7.1c-2.3-1.8-5.2-2.7-8.8-2.7c-3.6,0-6.5,0.9-8.8,2.6c-2.2,1.7-3.9,4.1-4.9,7
	c-1.1,2.9-1.6,6.2-1.6,9.7v33.1h-19.8v-33c0-3.6-0.5-6.9-1.5-9.9c-1-2.9-2.7-5.3-5-7c-2.3-1.7-5.2-2.6-8.8-2.6
	c-3.7,0-6.7,0.9-8.9,2.7c-2.2,1.8-3.9,4.1-4.9,7.1c-1,2.9-1.5,6.2-1.5,9.7v33h-19.8V38.4c0-6.4,1.3-12.3,3.8-17.7
	c2.5-5.4,6.2-9.7,11.2-12.9c5-3.3,11.2-4.9,18.6-4.9c5.9,0,11.1,1.1,15.4,3.3c4.3,2.2,7.7,5.2,10,9.1c2.4,3.9,3.6,8.4,3.7,13.5h-4.5
	c0.1-5.1,1.4-9.6,3.9-13.5c2.5-3.9,5.9-6.9,10.2-9.1C332.8,4,337.6,2.9,343.1,2.9L343.1,2.9z"/>
<path d="M207.3,1.1c-20.7,0-37.5,16.8-37.5,37.6c0,20.8,16.8,37.6,37.5,37.6s37.5-16.8,37.5-37.6C244.9,18,228.1,1.1,207.3,1.1z
	 M207.3,57.6c-10.4,0-18.8-8.4-18.8-18.8S197,20,207.3,20c10.4,0,18.8,8.4,18.8,18.8S217.7,57.6,207.3,57.6z"/>
<polygon points="366,334.8 366,314.7 346.2,314.7 346.2,303.3 326.5,303.3 326.5,314.7 316.7,314.7 316.7,314.7 306.8,314.7 
	306.8,303.3 287.1,303.3 287.1,314.7 267.4,314.7 267.4,334.8 256.1,334.8 256.1,354.9 256.1,354.9 256.1,375 275.9,375 
	275.9,354.9 275.9,354.9 275.9,334.8 287.1,334.8 287.1,323.3 296.9,323.3 296.9,334.8 306.8,334.8 306.8,354.9 306.8,354.9 
	306.8,375 326.5,375 326.5,354.9 326.5,354.9 326.5,334.8 336.4,334.8 336.4,323.3 346.2,323.3 346.2,334.8 357.5,334.8 
	357.5,354.9 357.5,354.9 357.5,375 377.2,375 377.2,354.9 377.2,354.9 377.2,334.8 "/>
<g>
	<path d="M236.5,329.4v-19.5H217v-9.8h-19.4v9.8h-19.4v19.5h-9.7v19.5h9.7v19.5h19.4v9.8H217v-9.8h19.4v-19.5h9.7v-19.5H236.5z
		 M226.7,348.9H217v9.8h-19.4v-9.8h-9.7v-19.5h9.7v-9.8H217v9.8h9.7V348.9z"/>
</g>
<path d="M35.9,322.8c-3.7,0-6.8,0.9-9.2,2.7c-2.4,1.8-4.2,4.2-5.3,7.1c-1.1,2.9-1.7,6.2-1.7,9.9v32.2H0v-34.5c0-6.7,1.3-12.8,4-18.4
	c2.6-5.5,6.6-10,11.9-13.3c5.3-3.3,12-5,20.1-5s14.8,1.7,20.1,5c5.3,3.3,9.4,7.7,12,13.2c2.7,5.5,4,11.7,4,18.5v34.5H52.4v-32.2
	c0-3.5-0.6-6.8-1.8-9.8c-1.2-3-3-5.4-5.4-7.2C42.8,323.7,39.7,322.8,35.9,322.8z"/>
<path d="M121.6,301.5c-20.7,0-37.5,16.8-37.5,37.6c0,20.8,16.8,37.6,37.5,37.6s37.5-16.8,37.5-37.6
	C159.1,318.3,142.3,301.5,121.6,301.5z M121.6,357.9c-10.4,0-18.8-8.4-18.8-18.8c0-10.4,8.4-18.8,18.8-18.8
	c10.4,0,18.8,8.4,18.8,18.8C140.4,349.5,132,357.9,121.6,357.9z"/>
<path d="M426,301.5c-20.7,0-37.5,16.8-37.5,37.6c0,20.8,16.8,37.6,37.5,37.6c20.7,0,37.5-16.8,37.5-37.6
	C463.5,318.3,446.7,301.5,426,301.5z M426,357.9c-10.4,0-18.8-8.4-18.8-18.8c0-10.4,8.4-18.8,18.8-18.8c10.4,0,18.8,8.4,18.8,18.8
	C444.7,349.5,436.3,357.9,426,357.9z"/>
<path d="M150.7,229v-19.5h-19.4v-9.8h-19.4v9.8H92.4V229h-9.7v19.5h9.7V268h19.4v9.8h19.4V268h19.4v-19.5h9.7V229H150.7z
	 M131.2,248.5v9.7h-19.4v-9.7h-9.7V229h9.7v-9.8h19.4v9.8h9.7v19.5H131.2z"/>
<path d="M236.5,229v-19.5H217v-9.8h-19.4v9.8h-19.4V229h-9.7v19.5h9.7V268h19.4v9.8H217V268h19.4v-19.5h9.7V229H236.5z M217,248.5
	v9.7h-19.4v-9.7h-9.7V229h9.7v-9.8H217v9.8h9.7v19.5H217z"/>
<path d="M455.3,229v-19.5h-19.4v-9.8h-19.4v9.8H397V229h-9.7v19.5h9.7V268h19.4v9.8h19.4V268h19.4v-19.5h9.7V229H455.3z
	 M435.9,248.5v9.7h-19.4v-9.7h-9.7V229h9.7v-9.8h19.4v9.8h9.7v19.5H435.9z"/>
<path d="M35.9,222.5c-3.7,0-6.8,0.9-9.2,2.7c-2.4,1.8-4.2,4.2-5.3,7.1c-1.1,2.9-1.7,6.2-1.7,9.9v32.2H0v-34.5c0-6.7,1.3-12.8,4-18.4
	c2.6-5.5,6.6-10,11.9-13.3c5.3-3.3,12-5,20.1-5s14.8,1.7,20.1,5c5.3,3.3,9.4,7.7,12,13.2c2.7,5.5,4,11.7,4,18.5v34.5H52.4v-32.2
	c0-3.5-0.6-6.8-1.8-9.8c-1.2-3-3-5.4-5.4-7.2C42.8,223.4,39.7,222.5,35.9,222.5z"/>
<path d="M343.1,202.9c7.5,0,13.8,1.6,18.7,4.9c5,3.3,8.7,7.6,11.3,12.9c2.6,5.3,3.8,11.2,3.8,17.8v36.2h-19.8v-32.9
	c0-3.6-0.5-6.9-1.6-9.9c-1.1-2.9-2.7-5.3-5-7.1c-2.3-1.8-5.2-2.7-8.8-2.7c-3.6,0-6.5,0.9-8.8,2.6c-2.2,1.7-3.9,4.1-4.9,7
	c-1.1,2.9-1.6,6.2-1.6,9.7v33.1h-19.8v-33c0-3.6-0.5-6.9-1.5-9.9c-1-2.9-2.7-5.3-5-7c-2.3-1.7-5.2-2.6-8.8-2.6
	c-3.7,0-6.7,0.9-8.9,2.7c-2.2,1.8-3.9,4.1-4.9,7.1c-1,2.9-1.5,6.2-1.5,9.7v33h-19.8v-36.2c0-6.4,1.3-12.3,3.8-17.7
	c2.5-5.4,6.2-9.7,11.2-12.9c5-3.3,11.2-4.9,18.6-4.9c5.9,0,11.1,1.1,15.4,3.3c4.3,2.2,7.7,5.2,10,9.1c2.4,3.9,3.6,8.4,3.7,13.5h-4.5
	c0.1-5.1,1.4-9.6,3.9-13.5c2.5-3.9,5.9-6.9,10.2-9.1C332.8,204,337.6,202.9,343.1,202.9L343.1,202.9z"/>
</svg>
